<mxfile host="app.diagrams.net" modified="2020-03-20T09:24:34.099Z" agent="Mozilla/5.0 (Windows NT 6.2; Win64; x64) AppleWebKit/537.36 (KHTML, like Gecko) Chrome/80.0.3987.132 Safari/537.36" etag="0SFFzl_e4Jajb_e2twJZ" version="12.8.5" type="github">
  <diagram id="EFy7emNQfHRjMefMJ5YR" name="Page-1">
    <mxGraphModel dx="671" dy="427" grid="1" gridSize="10" guides="1" tooltips="1" connect="1" arrows="1" fold="1" page="1" pageScale="1" pageWidth="827" pageHeight="1169" math="0" shadow="0">
      <root>
        <mxCell id="0" />
        <mxCell id="1" parent="0" />
        <mxCell id="cBmPAjbNEMHgj28BLC5n-30" value="" style="rounded=0;whiteSpace=wrap;html=1;" parent="1" vertex="1">
          <mxGeometry x="70" y="280" width="120" height="370" as="geometry" />
        </mxCell>
        <mxCell id="cBmPAjbNEMHgj28BLC5n-5" value="基本信息" style="rounded=0;whiteSpace=wrap;html=1;fillColor=#dae8fc;strokeColor=#6c8ebf;" parent="1" vertex="1">
          <mxGeometry x="95" y="320" width="70" height="30" as="geometry" />
        </mxCell>
        <mxCell id="cBmPAjbNEMHgj28BLC5n-6" value="图片" style="rounded=0;whiteSpace=wrap;html=1;fillColor=#dae8fc;strokeColor=#6c8ebf;" parent="1" vertex="1">
          <mxGeometry x="95" y="360" width="70" height="30" as="geometry" />
        </mxCell>
        <mxCell id="cBmPAjbNEMHgj28BLC5n-8" value="点赞" style="rounded=0;whiteSpace=wrap;html=1;fillColor=#dae8fc;strokeColor=#6c8ebf;" parent="1" vertex="1">
          <mxGeometry x="95" y="480" width="70" height="30" as="geometry" />
        </mxCell>
        <mxCell id="cBmPAjbNEMHgj28BLC5n-9" value="投票" style="rounded=0;whiteSpace=wrap;html=1;fillColor=#dae8fc;strokeColor=#6c8ebf;" parent="1" vertex="1">
          <mxGeometry x="95" y="440" width="70" height="30" as="geometry" />
        </mxCell>
        <mxCell id="cBmPAjbNEMHgj28BLC5n-11" value="话题" style="rounded=0;whiteSpace=wrap;html=1;fillColor=#dae8fc;strokeColor=#6c8ebf;" parent="1" vertex="1">
          <mxGeometry x="95" y="400" width="70" height="30" as="geometry" />
        </mxCell>
        <mxCell id="cBmPAjbNEMHgj28BLC5n-17" value="用户信息" style="rounded=0;whiteSpace=wrap;html=1;fillColor=#dae8fc;strokeColor=#6c8ebf;" parent="1" vertex="1">
          <mxGeometry x="95" y="520" width="70" height="30" as="geometry" />
        </mxCell>
        <mxCell id="cBmPAjbNEMHgj28BLC5n-18" value="身份标识" style="rounded=0;whiteSpace=wrap;html=1;fillColor=#dae8fc;strokeColor=#6c8ebf;" parent="1" vertex="1">
          <mxGeometry x="95" y="560" width="70" height="30" as="geometry" />
        </mxCell>
        <mxCell id="cBmPAjbNEMHgj28BLC5n-19" value="热门评论" style="rounded=0;whiteSpace=wrap;html=1;fillColor=#dae8fc;strokeColor=#6c8ebf;" parent="1" vertex="1">
          <mxGeometry x="95" y="600" width="70" height="30" as="geometry" />
        </mxCell>
        <mxCell id="6zBsIAkVB4v4lssfmCzK-3" value="" style="rounded=0;whiteSpace=wrap;html=1;" vertex="1" parent="1">
          <mxGeometry x="250" y="390" width="340" height="70" as="geometry" />
        </mxCell>
        <mxCell id="6zBsIAkVB4v4lssfmCzK-4" value="" style="endArrow=none;dashed=1;html=1;" edge="1" parent="1">
          <mxGeometry width="50" height="50" relative="1" as="geometry">
            <mxPoint x="340" y="495" as="sourcePoint" />
            <mxPoint x="340" y="355" as="targetPoint" />
          </mxGeometry>
        </mxCell>
        <mxCell id="6zBsIAkVB4v4lssfmCzK-5" value="个人页timeline" style="rounded=0;whiteSpace=wrap;html=1;fillColor=#dae8fc;strokeColor=#6c8ebf;" vertex="1" parent="1">
          <mxGeometry x="260" y="410" width="70" height="30" as="geometry" />
        </mxCell>
        <mxCell id="6zBsIAkVB4v4lssfmCzK-6" value="关注页timeline" style="rounded=0;whiteSpace=wrap;html=1;fillColor=#dae8fc;strokeColor=#6c8ebf;" vertex="1" parent="1">
          <mxGeometry x="344" y="410" width="70" height="30" as="geometry" />
        </mxCell>
        <mxCell id="6zBsIAkVB4v4lssfmCzK-8" value="关注页timeline" style="rounded=0;whiteSpace=wrap;html=1;fillColor=#dae8fc;strokeColor=#6c8ebf;" vertex="1" parent="1">
          <mxGeometry x="420" y="410" width="70" height="30" as="geometry" />
        </mxCell>
        <mxCell id="6zBsIAkVB4v4lssfmCzK-10" value="关注列表" style="rounded=0;whiteSpace=wrap;html=1;fillColor=#dae8fc;strokeColor=#6c8ebf;" vertex="1" parent="1">
          <mxGeometry x="510" y="410" width="70" height="30" as="geometry" />
        </mxCell>
        <mxCell id="6zBsIAkVB4v4lssfmCzK-13" value="queue" style="rounded=1;whiteSpace=wrap;html=1;fillColor=#ffe6cc;strokeColor=#d79b00;" vertex="1" parent="1">
          <mxGeometry x="360" y="280" width="70" height="30" as="geometry" />
        </mxCell>
        <mxCell id="6zBsIAkVB4v4lssfmCzK-14" value="" style="endArrow=classic;html=1;exitX=0.5;exitY=1;exitDx=0;exitDy=0;entryX=0.5;entryY=0;entryDx=0;entryDy=0;" edge="1" parent="1" source="6zBsIAkVB4v4lssfmCzK-13" target="6zBsIAkVB4v4lssfmCzK-5">
          <mxGeometry width="50" height="50" relative="1" as="geometry">
            <mxPoint x="370" y="450" as="sourcePoint" />
            <mxPoint x="298" y="393" as="targetPoint" />
          </mxGeometry>
        </mxCell>
        <mxCell id="6zBsIAkVB4v4lssfmCzK-15" value="" style="endArrow=classic;html=1;exitX=0.5;exitY=1;exitDx=0;exitDy=0;entryX=0.671;entryY=0.067;entryDx=0;entryDy=0;entryPerimeter=0;" edge="1" parent="1" source="6zBsIAkVB4v4lssfmCzK-13" target="6zBsIAkVB4v4lssfmCzK-6">
          <mxGeometry width="50" height="50" relative="1" as="geometry">
            <mxPoint x="370" y="450" as="sourcePoint" />
            <mxPoint x="420" y="400" as="targetPoint" />
          </mxGeometry>
        </mxCell>
        <mxCell id="6zBsIAkVB4v4lssfmCzK-16" value="" style="endArrow=classic;html=1;exitX=0.5;exitY=1;exitDx=0;exitDy=0;entryX=0.5;entryY=0;entryDx=0;entryDy=0;" edge="1" parent="1" source="6zBsIAkVB4v4lssfmCzK-13" target="6zBsIAkVB4v4lssfmCzK-8">
          <mxGeometry width="50" height="50" relative="1" as="geometry">
            <mxPoint x="370" y="450" as="sourcePoint" />
            <mxPoint x="420" y="400" as="targetPoint" />
          </mxGeometry>
        </mxCell>
        <mxCell id="6zBsIAkVB4v4lssfmCzK-17" value="" style="endArrow=classic;html=1;" edge="1" parent="1" source="6zBsIAkVB4v4lssfmCzK-10">
          <mxGeometry width="50" height="50" relative="1" as="geometry">
            <mxPoint x="370" y="450" as="sourcePoint" />
            <mxPoint x="400" y="310" as="targetPoint" />
          </mxGeometry>
        </mxCell>
        <mxCell id="6zBsIAkVB4v4lssfmCzK-18" value="DB" style="text;html=1;strokeColor=none;fillColor=none;align=center;verticalAlign=middle;whiteSpace=wrap;rounded=0;" vertex="1" parent="1">
          <mxGeometry x="380" y="442" width="40" height="20" as="geometry" />
        </mxCell>
        <mxCell id="6zBsIAkVB4v4lssfmCzK-19" value="merge" style="rounded=0;whiteSpace=wrap;html=1;fillColor=#ffe6cc;strokeColor=#d79b00;" vertex="1" parent="1">
          <mxGeometry x="370" y="530" width="70" height="30" as="geometry" />
        </mxCell>
        <mxCell id="6zBsIAkVB4v4lssfmCzK-20" value="" style="endArrow=classic;html=1;exitX=0.5;exitY=1;exitDx=0;exitDy=0;entryX=0.414;entryY=-0.089;entryDx=0;entryDy=0;entryPerimeter=0;" edge="1" parent="1" source="6zBsIAkVB4v4lssfmCzK-5" target="6zBsIAkVB4v4lssfmCzK-19">
          <mxGeometry width="50" height="50" relative="1" as="geometry">
            <mxPoint x="370" y="450" as="sourcePoint" />
            <mxPoint x="420" y="400" as="targetPoint" />
          </mxGeometry>
        </mxCell>
        <mxCell id="6zBsIAkVB4v4lssfmCzK-21" value="" style="endArrow=classic;html=1;exitX=0.5;exitY=1;exitDx=0;exitDy=0;" edge="1" parent="1" source="6zBsIAkVB4v4lssfmCzK-8">
          <mxGeometry width="50" height="50" relative="1" as="geometry">
            <mxPoint x="428" y="440" as="sourcePoint" />
            <mxPoint x="405" y="530" as="targetPoint" />
          </mxGeometry>
        </mxCell>
        <mxCell id="6zBsIAkVB4v4lssfmCzK-22" value="" style="endArrow=classic;html=1;" edge="1" parent="1" source="6zBsIAkVB4v4lssfmCzK-10">
          <mxGeometry width="50" height="50" relative="1" as="geometry">
            <mxPoint x="370" y="450" as="sourcePoint" />
            <mxPoint x="420" y="530" as="targetPoint" />
          </mxGeometry>
        </mxCell>
        <mxCell id="6zBsIAkVB4v4lssfmCzK-23" value="3.读取大V内容id" style="text;html=1;strokeColor=none;fillColor=none;align=center;verticalAlign=middle;whiteSpace=wrap;rounded=0;" vertex="1" parent="1">
          <mxGeometry x="250" y="480" width="80" height="20" as="geometry" />
        </mxCell>
        <mxCell id="6zBsIAkVB4v4lssfmCzK-24" value="" style="endArrow=classic;html=1;exitX=0.969;exitY=0.717;exitDx=0;exitDy=0;entryX=0;entryY=0.5;entryDx=0;entryDy=0;exitPerimeter=0;" edge="1" parent="1" source="cBmPAjbNEMHgj28BLC5n-30" target="6zBsIAkVB4v4lssfmCzK-19">
          <mxGeometry width="50" height="50" relative="1" as="geometry">
            <mxPoint x="320" y="460" as="sourcePoint" />
            <mxPoint x="370" y="410" as="targetPoint" />
          </mxGeometry>
        </mxCell>
        <mxCell id="6zBsIAkVB4v4lssfmCzK-25" value="2.读取大v列表" style="text;html=1;strokeColor=none;fillColor=none;align=center;verticalAlign=middle;whiteSpace=wrap;rounded=0;" vertex="1" parent="1">
          <mxGeometry x="460" y="480" width="140" height="20" as="geometry" />
        </mxCell>
        <mxCell id="6zBsIAkVB4v4lssfmCzK-28" value="1.读取收信箱内容id" style="text;html=1;strokeColor=none;fillColor=none;align=center;verticalAlign=middle;whiteSpace=wrap;rounded=0;" vertex="1" parent="1">
          <mxGeometry x="360" y="480" width="80" height="20" as="geometry" />
        </mxCell>
        <mxCell id="6zBsIAkVB4v4lssfmCzK-29" value="4.聚合内容信息" style="text;html=1;strokeColor=none;fillColor=none;align=center;verticalAlign=middle;whiteSpace=wrap;rounded=0;" vertex="1" parent="1">
          <mxGeometry x="225" y="520" width="80" height="20" as="geometry" />
        </mxCell>
        <mxCell id="6zBsIAkVB4v4lssfmCzK-33" value="" style="endArrow=classic;html=1;entryX=0.5;entryY=0;entryDx=0;entryDy=0;" edge="1" parent="1" target="6zBsIAkVB4v4lssfmCzK-13">
          <mxGeometry width="50" height="50" relative="1" as="geometry">
            <mxPoint x="395" y="220" as="sourcePoint" />
            <mxPoint x="370" y="370" as="targetPoint" />
          </mxGeometry>
        </mxCell>
        <mxCell id="6zBsIAkVB4v4lssfmCzK-34" value="发鹏友圈" style="text;html=1;strokeColor=none;fillColor=none;align=center;verticalAlign=middle;whiteSpace=wrap;rounded=0;" vertex="1" parent="1">
          <mxGeometry x="400" y="230" width="70" height="20" as="geometry" />
        </mxCell>
        <mxCell id="6zBsIAkVB4v4lssfmCzK-35" value="1.写收信箱" style="text;html=1;strokeColor=none;fillColor=none;align=center;verticalAlign=middle;whiteSpace=wrap;rounded=0;" vertex="1" parent="1">
          <mxGeometry x="260" y="340" width="70" height="20" as="geometry" />
        </mxCell>
        <mxCell id="6zBsIAkVB4v4lssfmCzK-36" value="2.读粉丝列表" style="text;html=1;strokeColor=none;fillColor=none;align=center;verticalAlign=middle;whiteSpace=wrap;rounded=0;" vertex="1" parent="1">
          <mxGeometry x="460" y="330" width="100" height="20" as="geometry" />
        </mxCell>
        <mxCell id="6zBsIAkVB4v4lssfmCzK-37" value="3.写扩散给粉丝" style="text;html=1;strokeColor=none;fillColor=none;align=center;verticalAlign=middle;whiteSpace=wrap;rounded=0;" vertex="1" parent="1">
          <mxGeometry x="359" y="340" width="101" height="20" as="geometry" />
        </mxCell>
        <mxCell id="6zBsIAkVB4v4lssfmCzK-39" value="" style="endArrow=classic;html=1;entryX=0.997;entryY=0.046;entryDx=0;entryDy=0;entryPerimeter=0;" edge="1" parent="1" source="6zBsIAkVB4v4lssfmCzK-13" target="cBmPAjbNEMHgj28BLC5n-30">
          <mxGeometry width="50" height="50" relative="1" as="geometry">
            <mxPoint x="330" y="310" as="sourcePoint" />
            <mxPoint x="370" y="470" as="targetPoint" />
          </mxGeometry>
        </mxCell>
      </root>
    </mxGraphModel>
  </diagram>
</mxfile>
